<svg xmlns="http://www.w3.org/2000/svg" xmlns:xlink="http://www.w3.org/1999/xlink" aria-hidden="true" role="img" class="iconify iconify--logos" width="31.88" height="32" preserveAspectRatio="xMidYMid meet" viewBox="0 0 256 257"><defs><linearGradient id="IconifyId1813088fe1fbc0124" x1="-.828%" x2="57.636%" y1="7.652%" y2="78.411%"><stop offset="0%" stop-color="#41D1FF"></stop><stop offset="100%" stop-color="#BD34FE"></stop></linearGradient><linearGradient id="IconifyId1813088fe1fbc0125" x1="43.376%" x2="50.316%" y1="2.242%" y2="89.03%"><stop offset="0%" stop-color="#FFBD4F"></stop><stop offset="100%" stop-color="#FF980E"></stop></linearGradient></defs><path fill="url(#IconifyId1813088fe1fbc0124)" d="M255.153 37.938L134.897 252.976c-3.253 5.811-11.579 5.926-15.008.208L2.559 37.958c-3.779-6.293 1.987-13.976 9.148-12.882l123.276 18.812c2.318.354 4.683-.492 6.308-2.253l100.925-109.476c5.411-5.866 15.196-1.097 13.894 6.917l-1.001 6.166a8.526 8.526 0 0 1-2.252 4.457Z"></path><path fill="url(#IconifyId1813088fe1fbc0125)" d="M185.432.063L96.44 17.501a8.509 8.509 0 0 0-6.874 7.066l-14.692 98.074c-.94 6.322 5.919 10.894 11.287 7.521l20.27-12.736c5.932-3.725 13.607 1.354 12.426 8.228l-11.698 67.833c-1.204 6.996 8.055 10.603 12.601 4.905l2.824-3.54l73.073-130.845c3.037-5.423-1.597-11.917-7.68-10.873l-.336.058c-5.667.973-10.379-4.476-8.463-9.943l10.227-29.173C186.694 7.565 191.972 3.004 198.17.063h-12.738Z"></path></svg>